<svg height='100px' width='100px'  fill="#000000" xmlns:dc="http://purl.org/dc/elements/1.1/" xmlns:cc="http://creativecommons.org/ns#" xmlns:rdf="http://www.w3.org/1999/02/22-rdf-syntax-ns#" xmlns:svg="http://www.w3.org/2000/svg" xmlns="http://www.w3.org/2000/svg" xmlns:sodipodi="http://sodipodi.sourceforge.net/DTD/sodipodi-0.dtd" xmlns:inkscape="http://www.inkscape.org/namespaces/inkscape" version="1.1" x="0px" y="0px" viewBox="0 0 100 100">
<style>
    svg,
    path{
        fill:#002a66!important;
        transform:scale(1);
    }
</style>
<g transform="translate(0,-952.36218)"><path style="color:#000000;enable-background:accumulate;" d="m 24.000312,979.36218 c -5.52282,0 -9.99995,4.4651 -9.99995,9.9729 0,5.5078 4.47713,9.9729 9.99995,9.9729 5.52281,0 9.99994,-4.4651 9.99994,-9.9729 0,-5.5078 -4.47713,-9.9729 -9.99994,-9.9729 z m 51.9997,0 c -5.52282,0 -9.99994,4.4651 -9.99994,9.9729 0,5.5078 4.47712,9.9729 9.99994,9.9729 5.52282,0 9.99994,-4.4651 9.99994,-9.9729 0,-5.5078 -4.47712,-9.9729 -9.99994,-9.9729 z m -25.99985,5.9837 c -5.52282,0 -9.99995,4.4651 -9.99995,9.9729 0,5.50792 4.47713,9.97292 9.99995,9.97292 5.52282,0 9.99994,-4.465 9.99994,-9.97292 0,-5.5078 -4.47712,-9.9729 -9.99994,-9.9729 z m -26.12485,16.01902 c -9.94084,0.066 -17.9412698,8.1305 -17.8748998,18.0448 l 24.8748598,-0.094 c 1.34208,-4.2743 4.09977,-7.9279 7.7187,-10.4404 -3.29278,-4.5654 -8.65024,-7.5512 -14.71866,-7.5108 z m 51.9997,0 c -5.98138,0.04 -11.25812,2.9879 -14.49992,7.4797 3.65685,2.5244 6.44747,6.1999 7.78121,10.5339 l 24.8436,-0.094 c -3e-5,-0.035 2.3e-4,-0.059 0,-0.094 -0.0664,-9.914 -8.18406,-17.8928 -18.12489,-17.8266 z m -25.99985,5.9214 c -9.94084,0.066 -17.94127,8.1619 -17.8749,18.0759 l 35.99979,-0.1559 c -3e-5,-0.034 2.3e-4,-0.059 0,-0.094 -0.0664,-9.914 -8.18406,-17.8928 -18.12489,-17.8266 z" fill="#000000" stroke="none" marker="none" visibility="visible" display="inline" overflow="visible"></path></g></svg>