<svg height='100px' width='100px'  fill="#000000" xmlns="http://www.w3.org/2000/svg" xmlns:xlink="http://www.w3.org/1999/xlink" version="1.1" x="0px" y="0px" viewBox="0 0 100 100" enable-background="new 0 0 100 100" xml:space="preserve">
<style>
    svg,
    path{
        fill:#002a66!important;
    }
</style>
<g><polygon points="31.855,36.5 68.145,36.5 50,23.83  "></polygon><polygon points="72.412,64.763 93.877,64.763 87.345,53.658 72.412,53.658  "></polygon><polygon points="71.412,43.5 71.412,39.5 28.588,39.5 28.588,43.5 29.088,43.5 70.912,43.5  "></polygon><path d="M49.979,59.739c1.924,0,3.488-1.565,3.488-3.489c0-1.923-1.564-3.488-3.488-3.488s-3.488,1.565-3.488,3.488   C46.491,58.174,48.056,59.739,49.979,59.739z"></path><rect x="42.365" y="73.237" width="15.316" height="21.763"></rect><path d="M30.588,52.158v14.105V95h8.777V70.237h21.316V95h8.73V66.263V52.158V46.5H30.588V52.158z M49.979,49.762   c3.578,0,6.488,2.911,6.488,6.488c0,3.578-2.91,6.489-6.488,6.489s-6.488-2.911-6.488-6.489   C43.491,52.673,46.401,49.762,49.979,49.762z"></path><path d="M27.588,67.763H5V95h22.588V67.763z M23.518,87.342H9.07V73.447h14.447V87.342z"></path><rect x="79.482" y="76.447" width="8.447" height="7.895"></rect><polygon points="27.588,64.763 27.588,53.658 12.655,53.658 6.123,64.763  "></polygon><rect x="12.07" y="76.447" width="8.447" height="7.895"></rect><path d="M72.412,95H95V67.763H72.412V95z M76.482,73.447H90.93v13.895H76.482V73.447z"></path><polygon points="51.5,5 48.5,5 48.5,21.218 50,20.17 51.5,21.218 51.5,11.888 62.859,11.888  "></polygon></g></svg>