<svg height='100px' width='100px'  fill="#000000" xmlns:dc="http://purl.org/dc/elements/1.1/" xmlns:cc="http://creativecommons.org/ns#" xmlns:rdf="http://www.w3.org/1999/02/22-rdf-syntax-ns#" xmlns:svg="http://www.w3.org/2000/svg" xmlns="http://www.w3.org/2000/svg" xmlns:sodipodi="http://sodipodi.sourceforge.net/DTD/sodipodi-0.dtd" xmlns:inkscape="http://www.inkscape.org/namespaces/inkscape" viewBox="0 0 16 16" version="1.1" x="0px" y="0px">
<style>
    path{
        fill:#007ac4;!important;
    }
</style>
<g transform="translate(0,-1036.3622)"><path style="color:#000000;clip-rule:nonzero;display:inline;overflow:visible;visibility:visible;opacity:1;isolation:auto;mix-blend-mode:normal;color-interpolation:sRGB;color-interpolation-filters:linearRGB;solid-color:#000000;solid-opacity:1;fill:#000000;fill-opacity:1;fill-rule:nonzero;stroke:none;stroke-width:1;stroke-linecap:butt;stroke-linejoin:miter;stroke-miterlimit:4;stroke-dasharray:none;stroke-dashoffset:0;stroke-opacity:1;color-rendering:auto;image-rendering:auto;shape-rendering:auto;text-rendering:auto;enable-background:accumulate" d="M 5.5 2 A 2 2 0 0 0 3.5 4 A 2 2 0 0 0 5 5.9335938 L 5 11 L 3 11 C 1.8919904 11 1 11.8919 1 13 L 1 14 L 15 14 L 15 13 C 15 11.8919 14.10801 11 13 11 L 13 10 L 11 10 L 11 11 L 10 11 L 10 10 L 8 10 L 8 11 L 6 11 L 6 5.9355469 A 2 2 0 0 0 7.5 4 A 2 2 0 0 0 5.5 2 z " transform="translate(0,1036.3622)"></path></g></svg>