<svg height='100px' width='100px'  fill="#000000" xmlns="http://www.w3.org/2000/svg" data-name="Layer 1" viewBox="0 0 100 100" x="0px" y="0px">
<style>
    path{
        fill:#007ac4!important;
    }
</style>
<path d="M90.09,42.85c-.36-.77-.73-1.51-1.12-2.24-5.4-10.1-13.87-16.55-21.15-16.55H32.19c-6.9,0-14.86,5.79-20.29,15-.71,1.22-1.37,2.47-2,3.8C3.49,56.62,5.15,71,13.62,74.93c7.58,3.54,18.06-2.47,24.77-13.67H61.6c6.72,11.2,17.2,17.21,24.79,13.67C94.85,71,96.51,56.62,90.09,42.85ZM35.17,47.52A1.16,1.16,0,0,1,34,48.68h-4.8v4.79a1.16,1.16,0,0,1-1.16,1.16h-3a1.16,1.16,0,0,1-1.16-1.16V48.68h-4.8A1.15,1.15,0,0,1,18,47.52v-3a1.15,1.15,0,0,1,1.15-1.16h4.8V38.59a1.16,1.16,0,0,1,1.16-1.16h3a1.16,1.16,0,0,1,1.16,1.16v4.79H34a1.16,1.16,0,0,1,1.16,1.16ZM73.43,37.43a3.07,3.07,0,1,1-3.07,3.07A3.06,3.06,0,0,1,73.43,37.43ZM67.9,49.1A3.07,3.07,0,1,1,71,46,3.07,3.07,0,0,1,67.9,49.1Zm5.53,5.53a3.07,3.07,0,1,1,3.07-3.07A3.07,3.07,0,0,1,73.43,54.63ZM79,49.1A3.07,3.07,0,1,1,82,46,3.06,3.06,0,0,1,79,49.1Z"></path></svg>